<svg xmlns="http://www.w3.org/2000/svg" id="logo_vetor" width="100" height="33.442" viewBox="0 0 100 33.442">
    <defs>
        <style>
            .cls-1{fill:#fff}
        </style>
    </defs>
    <path id="Caminho_1" d="M2339.59 1367.521a3.285 3.285 0 0 1-1.269.252c-1.363 0-2.693-.179-2.693-2.317v-5.626h2.979v-3.971h-2.979v-3.972h-3.972v13.569c0 3.937 2.491 6.288 6.664 6.288a7.247 7.247 0 0 0 2.793-.556z" class="cls-1" transform="translate(-2241.115 -1338.633)"/>
    <path id="Caminho_2" d="M1146.757 1359.834h-5.957v-7.943h-3.972v19.857h3.972v-7.942h5.957v7.942h3.971v-19.857h-3.971z" class="cls-1" transform="translate(-1104.533 -1338.636)"/>
    <path id="Caminho_3" d="M2026 1432.189c-.082-.01-.159-.021-.236-.032a8.311 8.311 0 0 1-1.61-.393 2.038 2.038 0 0 1-.62-.3.587.587 0 0 1-.176-.583 1.119 1.119 0 0 1 .6-.689 4.093 4.093 0 0 1 1.785-.349h.022a8.778 8.778 0 0 1 4.02 1.331l2.182-3.318a12.608 12.608 0 0 0-6.2-1.985h-.031c-3.864.01-6.36 2.1-6.36 5.322 0 1.264.6 4.275 6.156 4.939l.236.032a8.339 8.339 0 0 1 1.61.393 2.043 2.043 0 0 1 .621.3.589.589 0 0 1 .176.583 1.123 1.123 0 0 1-.6.689 4.091 4.091 0 0 1-1.785.349h-.021a8.772 8.772 0 0 1-4.02-1.331l-2.182 3.318a12.608 12.608 0 0 0 6.2 1.984h.031c3.863-.01 6.36-2.1 6.36-5.322-.001-1.263-.601-4.273-6.158-4.938z" class="cls-1" transform="translate(-1944.054 -1409.012)"/>
    <path id="Caminho_4" d="M1486.2 1442.62a2.979 2.979 0 1 1-5.957 0v-9.266h-3.971v9.266c0 3.833 1.794 6.95 5.626 6.95a6.671 6.671 0 0 0 4.3-1.671v1.34h3.972v-15.885h-3.97z" class="cls-1" transform="translate(-1427.429 -1416.128)"/>
    <path id="Caminho_5" d="M1819.676 1433.357h-3.976v15.873h3.971v-8.924a2.982 2.982 0 0 1 2.979-2.978h1.324v-3.972a6.672 6.672 0 0 0-4.3 1.671z" class="cls-1" transform="translate(-1750.315 -1416.131)"/>
    <path id="Caminho_6" d="M478.976 1356.219h10.591v-4.634h-15.225v19.859h22.838v-4.634h-18.2z" class="cls-1" transform="translate(-474.342 -1338.346)"/>
    <path id="Caminho_7" d="M638.113 1084.634h2.979v16.218H630.5v4.634h15.226V1080h-12.247v10.26h4.634z" class="cls-1" transform="translate(-622.888 -1080)"/>
</svg>
